<svg transform="scale(2)" id="PaqRAmvbo1" data-name="0711_Database 2" xmlns="http://www.w3.org/2000/svg" viewBox="0 0 500 500" class="pbimage_pbimage__wrapper__image__0LEis false"><title>Database 2</title><defs><style> .cls-1{fill:#68e1fd;} .cls-1, .cls-2, .cls-3{stroke-width:0px;} .cls-2{fill:#fff;} .cls-3{fill:#231f20;}
 .cls-3{fill:#231F20;}
 .cls-2{fill:#FFFFFF;}
 .cls-1{fill:#242d2f;}</style></defs><g id="Connection_Line" data-name="Connection Line"><g><g><line class="cls-2" x1="197.39" y1="302.65" x2="395.07" y2="195.67"></line><path class="cls-3" d="M197.39,303.4c-.27,0-.52-.14-.66-.39-.2-.36-.06-.82.3-1.02l197.68-106.98c.37-.2.82-.06,1.02.3s.06.82-.3,1.02l-197.68,106.98c-.11.06-.24.09-.36.09Z"></path></g><g><line class="cls-2" x1="305.52" y1="300.99" x2="110.9" y2="195.67"></line><path class="cls-3" d="M305.52,301.75c-.12,0-.24-.03-.36-.09l-194.62-105.32c-.36-.2-.5-.65-.3-1.02s.65-.5,1.02-.3l194.62,105.32c.36.2.5.65.3,1.02-.14.25-.39.39-.66.39Z"></path></g></g><g><line class="cls-2" x1="110.9" y1="349.46" x2="197.39" y2="302.65"></line><path class="cls-3" d="M110.9,350.21c-.27,0-.52-.14-.66-.39-.2-.36-.06-.82.3-1.02l86.49-46.8c.37-.2.82-.06,1.02.3.2.36.06.82-.3,1.02l-86.49,46.8c-.11.06-.24.09-.36.09Z"></path></g><g><line class="cls-2" x1="395.07" y1="349.46" x2="305.52" y2="300.99"></line><path class="cls-3" d="M395.07,350.21c-.12,0-.24-.03-.36-.09l-89.55-48.46c-.36-.2-.5-.65-.3-1.02.2-.36.65-.5,1.02-.3l89.55,48.46c.36.2.5.65.3,1.02-.14.25-.39.39-.66.39Z"></path></g></g><g id="Platform"><g><path class="cls-3" d="M347.48,264.47v12.46c0,20-43.65,36.23-97.51,36.23s-97.5-16.23-97.5-36.23v-12.46h5.92c13.66-13.87,49.51-23.77,91.58-23.77s77.92,9.9,91.59,23.77h5.92Z"></path><path class="cls-3" d="M249.97,313.91c-26.13,0-50.71-3.79-69.21-10.66-18.73-6.96-29.04-16.31-29.04-26.32v-12.46c0-.41.34-.75.75-.75h5.61c14.3-14.23,51.14-23.77,91.89-23.77s77.59,9.54,91.9,23.77h5.61c.41,0,.75.34.75.75v12.46c0,10.01-10.32,19.36-29.05,26.32-18.5,6.88-43.08,10.66-69.21,10.66ZM153.22,265.22v11.71c0,19.56,43.4,35.48,96.75,35.48s96.76-15.92,96.76-35.48v-11.71h-5.17c-.2,0-.39-.08-.53-.22-13.88-14.08-50.47-23.55-91.06-23.55s-77.17,9.46-91.05,23.55c-.14.14-.33.22-.53.22h-5.17Z"></path></g><g><ellipse class="cls-1" cx="249.98" cy="264.47" rx="97.51" ry="36.23"></ellipse><path class="cls-3" d="M249.98,301.45c-26.13,0-50.71-3.79-69.21-10.66-18.73-6.96-29.05-16.31-29.05-26.32s10.32-19.36,29.05-26.32c18.5-6.87,43.08-10.66,69.21-10.66s50.71,3.79,69.21,10.66c18.73,6.96,29.05,16.31,29.05,26.32s-10.32,19.36-29.05,26.32c-18.5,6.87-43.08,10.66-69.21,10.66ZM249.98,228.99c-53.35,0-96.76,15.92-96.76,35.48s43.41,35.48,96.76,35.48,96.76-15.92,96.76-35.48-43.41-35.48-96.76-35.48Z"></path></g></g><g id="Servers"><g><g><g><g><rect class="cls-2" x="369.28" y="88.03" width="70.69" height="111.34"></rect><path class="cls-3" d="M439.97,200.11h-70.69c-.41,0-.75-.34-.75-.75v-111.34c0-.41.34-.75.75-.75h70.69c.41,0,.75.34.75.75v111.34c0,.41-.34.75-.75.75ZM370.03,198.61h69.19v-109.84h-69.19v109.84Z"></path></g><g><rect class="cls-2" x="350.09" y="108.22" width="70.69" height="111.34"></rect><path class="cls-3" d="M420.79,220.31h-70.69c-.41,0-.75-.34-.75-.75v-111.34c0-.41.34-.75.75-.75h70.69c.41,0,.75.34.75.75v111.34c0,.41-.34.75-.75.75ZM350.84,218.81h69.19v-109.84h-69.19v109.84Z"></path></g><g><polygon class="cls-2" points="439.97 88.03 420.78 108.22 350.09 108.22 369.28 88.03 439.97 88.03"></polygon><path class="cls-3" d="M420.79,108.97h-70.69c-.3,0-.57-.18-.69-.45s-.06-.6.15-.81l19.19-20.2c.14-.15.34-.23.54-.23h70.69c.3,0,.57.18.69.45s.06.6-.15.81l-19.19,20.2c-.14.15-.34.23-.54.23ZM351.84,107.47h68.62l17.76-18.7h-68.62l-17.76,18.7Z"></path></g><g><polygon class="cls-3" points="439.97 199.36 420.78 219.56 420.78 108.22 439.97 88.03 439.97 199.36"></polygon><path class="cls-3" d="M420.79,220.31c-.09,0-.19-.02-.28-.05-.29-.11-.47-.39-.47-.7v-111.34c0-.19.07-.38.21-.52l19.19-20.2c.21-.22.54-.29.82-.18.29.11.47.39.47.7v111.34c0,.19-.07.38-.21.52l-19.19,20.2c-.14.15-.34.23-.54.23ZM421.54,108.52v109.16l17.69-18.62v-109.16l-17.69,18.62ZM439.97,199.36h0,0Z"></path></g></g><g><g><rect class="cls-2" x="355.12" y="115.26" width="61.03" height="21.81"></rect><path class="cls-3" d="M416.15,137.81h-61.03c-.41,0-.75-.34-.75-.75v-21.81c0-.41.34-.75.75-.75h61.03c.41,0,.75.34.75.75v21.81c0,.41-.34.75-.75.75ZM355.87,136.31h59.53v-20.31h-59.53v20.31Z"></path></g><path class="cls-3" d="M359.22,121.04c-.41,0-.75-.34-.75-.75v-2.12c0-.41.34-.75.75-.75s.75.34.75.75v2.12c0,.41-.34.75-.75.75Z"></path><path class="cls-3" d="M361.6,121.04c-.41,0-.75-.34-.75-.75v-2.12c0-.41.34-.75.75-.75s.75.34.75.75v2.12c0,.41-.34.75-.75.75Z"></path><path class="cls-3" d="M363.98,121.04c-.41,0-.75-.34-.75-.75v-2.12c0-.41.34-.75.75-.75s.75.34.75.75v2.12c0,.41-.34.75-.75.75Z"></path><path class="cls-3" d="M369.93,134h-11.11c-.41,0-.75-.34-.75-.75s.34-.75.75-.75h11.11c.41,0,.75.34.75.75s-.34.75-.75.75Z"></path><path class="cls-3" d="M383.95,134h-11.11c-.41,0-.75-.34-.75-.75s.34-.75.75-.75h11.11c.41,0,.75.34.75.75s-.34.75-.75.75Z"></path><path class="cls-3" d="M409.62,134h-22.75c-.41,0-.75-.34-.75-.75s.34-.75.75-.75h22.75c.41,0,.75.34.75.75s-.34.75-.75.75Z"></path><g><rect class="cls-2" x="406.84" y="118.7" width="5.16" height="4.23"></rect><path class="cls-3" d="M412,123.68h-5.16c-.41,0-.75-.34-.75-.75v-4.23c0-.41.34-.75.75-.75h5.16c.41,0,.75.34.75.75v4.23c0,.41-.34.75-.75.75ZM407.59,122.18h3.66v-2.73h-3.66v2.73Z"></path></g></g><g><g><rect class="cls-2" x="355.12" y="140.52" width="61.03" height="21.81"></rect><path class="cls-3" d="M416.15,163.08h-61.03c-.41,0-.75-.34-.75-.75v-21.81c0-.41.34-.75.75-.75h61.03c.41,0,.75.34.75.75v21.81c0,.41-.34.75-.75.75ZM355.87,161.58h59.53v-20.31h-59.53v20.31Z"></path></g><path class="cls-3" d="M359.22,146.3c-.41,0-.75-.34-.75-.75v-2.12c0-.41.34-.75.75-.75s.75.34.75.75v2.12c0,.41-.34.75-.75.75Z"></path><path class="cls-3" d="M361.6,146.3c-.41,0-.75-.34-.75-.75v-2.12c0-.41.34-.75.75-.75s.75.34.75.75v2.12c0,.41-.34.75-.75.75Z"></path><path class="cls-3" d="M363.98,146.3c-.41,0-.75-.34-.75-.75v-2.12c0-.41.34-.75.75-.75s.75.34.75.75v2.12c0,.41-.34.75-.75.75Z"></path><path class="cls-3" d="M369.93,159.27h-11.11c-.41,0-.75-.34-.75-.75s.34-.75.75-.75h11.11c.41,0,.75.34.75.75s-.34.75-.75.75Z"></path><path class="cls-3" d="M383.95,159.27h-11.11c-.41,0-.75-.34-.75-.75s.34-.75.75-.75h11.11c.41,0,.75.34.75.75s-.34.75-.75.75Z"></path><path class="cls-3" d="M401.41,159.27h-14.55c-.41,0-.75-.34-.75-.75s.34-.75.75-.75h14.55c.41,0,.75.34.75.75s-.34.75-.75.75Z"></path><g><rect class="cls-1" x="406.84" y="143.97" width="5.16" height="4.23"></rect><path class="cls-3" d="M412,148.95h-5.16c-.41,0-.75-.34-.75-.75v-4.23c0-.41.34-.75.75-.75h5.16c.41,0,.75.34.75.75v4.23c0,.41-.34.75-.75.75ZM407.59,147.45h3.66v-2.73h-3.66v2.73Z"></path></g></g><g><g><rect class="cls-2" x="355.12" y="165.79" width="61.03" height="21.81"></rect><path class="cls-3" d="M416.15,188.34h-61.03c-.41,0-.75-.34-.75-.75v-21.81c0-.41.34-.75.75-.75h61.03c.41,0,.75.34.75.75v21.81c0,.41-.34.75-.75.75ZM355.87,186.84h59.53v-20.31h-59.53v20.31Z"></path></g><path class="cls-3" d="M359.22,171.57c-.41,0-.75-.34-.75-.75v-2.12c0-.41.34-.75.75-.75s.75.34.75.75v2.12c0,.41-.34.75-.75.75Z"></path><path class="cls-3" d="M361.6,171.57c-.41,0-.75-.34-.75-.75v-2.12c0-.41.34-.75.75-.75s.75.34.75.75v2.12c0,.41-.34.75-.75.75Z"></path><path class="cls-3" d="M363.98,171.57c-.41,0-.75-.34-.75-.75v-2.12c0-.41.34-.75.75-.75s.75.34.75.75v2.12c0,.41-.34.75-.75.75Z"></path><path class="cls-3" d="M369.93,184.53h-11.11c-.41,0-.75-.34-.75-.75s.34-.75.75-.75h11.11c.41,0,.75.34.75.75s-.34.75-.75.75Z"></path><path class="cls-3" d="M383.95,184.53h-11.11c-.41,0-.75-.34-.75-.75s.34-.75.75-.75h11.11c.41,0,.75.34.75.75s-.34.75-.75.75Z"></path><path class="cls-3" d="M409.62,184.53h-22.75c-.41,0-.75-.34-.75-.75s.34-.75.75-.75h22.75c.41,0,.75.34.75.75s-.34.75-.75.75Z"></path><g><rect class="cls-2" x="406.84" y="169.23" width="5.16" height="4.23"></rect><path class="cls-3" d="M412,174.21h-5.16c-.41,0-.75-.34-.75-.75v-4.23c0-.41.34-.75.75-.75h5.16c.41,0,.75.34.75.75v4.23c0,.41-.34.75-.75.75ZM407.59,172.71h3.66v-2.73h-3.66v2.73Z"></path></g></g><g><g><rect class="cls-1" x="355.12" y="191.05" width="61.03" height="21.81"></rect><path class="cls-3" d="M416.15,213.61h-61.03c-.41,0-.75-.34-.75-.75v-21.81c0-.41.34-.75.75-.75h61.03c.41,0,.75.34.75.75v21.81c0,.41-.34.75-.75.75ZM355.87,212.11h59.53v-20.31h-59.53v20.31Z"></path></g><path class="cls-3" d="M359.22,196.83c-.41,0-.75-.34-.75-.75v-2.12c0-.41.34-.75.75-.75s.75.34.75.75v2.12c0,.41-.34.75-.75.75Z"></path><path class="cls-3" d="M361.6,196.83c-.41,0-.75-.34-.75-.75v-2.12c0-.41.34-.75.75-.75s.75.34.75.75v2.12c0,.41-.34.75-.75.75Z"></path><path class="cls-3" d="M363.98,196.83c-.41,0-.75-.34-.75-.75v-2.12c0-.41.34-.75.75-.75s.75.34.75.75v2.12c0,.41-.34.75-.75.75Z"></path><path class="cls-3" d="M369.93,209.8h-11.11c-.41,0-.75-.34-.75-.75s.34-.75.75-.75h11.11c.41,0,.75.34.75.75s-.34.75-.75.75Z"></path><path class="cls-3" d="M383.95,209.8h-11.11c-.41,0-.75-.34-.75-.75s.34-.75.75-.75h11.11c.41,0,.75.34.75.75s-.34.75-.75.75Z"></path><path class="cls-3" d="M409.62,209.8h-22.75c-.41,0-.75-.34-.75-.75s.34-.75.75-.75h22.75c.41,0,.75.34.75.75s-.34.75-.75.75Z"></path><g><rect class="cls-3" x="406.84" y="194.5" width="5.16" height="4.23"></rect><path class="cls-3" d="M412,199.48h-5.16c-.41,0-.75-.34-.75-.75v-4.23c0-.41.34-.75.75-.75h5.16c.41,0,.75.34.75.75v4.23c0,.41-.34.75-.75.75ZM407.59,197.98h3.66v-2.73h-3.66v2.73Z"></path></g></g></g><g><g><g><rect class="cls-2" x="64.47" y="88.03" width="70.69" height="111.34" transform="translate(199.63 287.39) rotate(180)"></rect><path class="cls-3" d="M135.16,200.11h-70.69c-.41,0-.75-.34-.75-.75v-111.34c0-.41.34-.75.75-.75h70.69c.41,0,.75.34.75.75v111.34c0,.41-.34.75-.75.75ZM65.22,198.61h69.19v-109.84h-69.19v109.84Z"></path></g><g><rect class="cls-2" x="83.66" y="108.22" width="70.69" height="111.34" transform="translate(238.01 327.79) rotate(180)"></rect><path class="cls-3" d="M154.35,220.31h-70.69c-.41,0-.75-.34-.75-.75v-111.34c0-.41.34-.75.75-.75h70.69c.41,0,.75.34.75.75v111.34c0,.41-.34.75-.75.75ZM84.41,218.81h69.19v-109.84h-69.19v109.84Z"></path></g><g><polygon class="cls-2" points="64.47 88.03 83.66 108.22 154.35 108.22 135.16 88.03 64.47 88.03"></polygon><path class="cls-3" d="M154.35,108.97h-70.69c-.21,0-.4-.08-.54-.23l-19.19-20.2c-.21-.22-.26-.54-.15-.81s.39-.45.69-.45h70.69c.21,0,.4.08.54.23l19.19,20.2c.21.22.26.54.15.81s-.39.45-.69.45ZM83.98,107.47h68.62l-17.76-18.7h-68.62l17.76,18.7Z"></path></g><g><polygon class="cls-3" points="64.47 199.36 83.66 219.56 83.66 108.22 64.47 88.03 64.47 199.36"></polygon><path class="cls-3" d="M83.66,220.31c-.2,0-.4-.08-.54-.23l-19.19-20.2c-.13-.14-.21-.32-.21-.52v-111.34c0-.31.19-.58.47-.7.29-.11.61-.04.82.18l19.19,20.2c.13.14.21.32.21.52v111.34c0,.31-.19.58-.47.7-.09.04-.18.05-.28.05ZM65.22,199.07l17.69,18.62v-109.16l-17.69-18.62v109.16Z"></path></g></g><g><g><rect class="cls-2" x="88.29" y="115.26" width="61.03" height="21.81" transform="translate(237.61 252.32) rotate(180)"></rect><path class="cls-3" d="M149.32,137.81h-61.04c-.41,0-.75-.34-.75-.75v-21.81c0-.41.34-.75.75-.75h61.04c.41,0,.75.34.75.75v21.81c0,.41-.34.75-.75.75ZM89.04,136.31h59.54v-20.31h-59.54v20.31Z"></path></g><path class="cls-3" d="M145.22,121.04c-.41,0-.75-.34-.75-.75v-2.12c0-.41.34-.75.75-.75s.75.34.75.75v2.12c0,.41-.34.75-.75.75Z"></path><path class="cls-3" d="M142.84,121.04c-.41,0-.75-.34-.75-.75v-2.12c0-.41.34-.75.75-.75s.75.34.75.75v2.12c0,.41-.34.75-.75.75Z"></path><path class="cls-3" d="M140.46,121.04c-.41,0-.75-.34-.75-.75v-2.12c0-.41.34-.75.75-.75s.75.34.75.75v2.12c0,.41-.34.75-.75.75Z"></path><path class="cls-3" d="M145.62,134h-11.11c-.41,0-.75-.34-.75-.75s.34-.75.75-.75h11.11c.41,0,.75.34.75.75s-.34.75-.75.75Z"></path><path class="cls-3" d="M131.6,134h-11.11c-.41,0-.75-.34-.75-.75s.34-.75.75-.75h11.11c.41,0,.75.34.75.75s-.34.75-.75.75Z"></path><path class="cls-3" d="M117.58,134h-22.75c-.41,0-.75-.34-.75-.75s.34-.75.75-.75h22.75c.41,0,.75.34.75.75s-.34.75-.75.75Z"></path><g><rect class="cls-1" x="92.44" y="118.7" width="5.16" height="4.23" transform="translate(190.05 241.64) rotate(180)"></rect><path class="cls-3" d="M97.6,123.68h-5.16c-.41,0-.75-.34-.75-.75v-4.23c0-.41.34-.75.75-.75h5.16c.41,0,.75.34.75.75v4.23c0,.41-.34.75-.75.75ZM93.2,122.18h3.66v-2.73h-3.66v2.73Z"></path></g></g><g><g><rect class="cls-1" x="88.29" y="140.52" width="61.03" height="21.81" transform="translate(237.61 302.85) rotate(180)"></rect><path class="cls-3" d="M149.32,163.08h-61.04c-.41,0-.75-.34-.75-.75v-21.81c0-.41.34-.75.75-.75h61.04c.41,0,.75.34.75.75v21.81c0,.41-.34.75-.75.75ZM89.04,161.58h59.54v-20.31h-59.54v20.31Z"></path></g><path class="cls-3" d="M145.22,146.3c-.41,0-.75-.34-.75-.75v-2.12c0-.41.34-.75.75-.75s.75.34.75.75v2.12c0,.41-.34.75-.75.75Z"></path><path class="cls-3" d="M142.84,146.3c-.41,0-.75-.34-.75-.75v-2.12c0-.41.34-.75.75-.75s.75.34.75.75v2.12c0,.41-.34.75-.75.75Z"></path><path class="cls-3" d="M140.46,146.3c-.41,0-.75-.34-.75-.75v-2.12c0-.41.34-.75.75-.75s.75.34.75.75v2.12c0,.41-.34.75-.75.75Z"></path><path class="cls-3" d="M145.62,159.27h-11.11c-.41,0-.75-.34-.75-.75s.34-.75.75-.75h11.11c.41,0,.75.34.75.75s-.34.75-.75.75Z"></path><path class="cls-3" d="M131.6,159.27h-11.11c-.41,0-.75-.34-.75-.75s.34-.75.75-.75h11.11c.41,0,.75.34.75.75s-.34.75-.75.75Z"></path><path class="cls-3" d="M117.58,159.27h-14.55c-.41,0-.75-.34-.75-.75s.34-.75.75-.75h14.55c.41,0,.75.34.75.75s-.34.75-.75.75Z"></path><g><rect class="cls-3" x="92.44" y="143.97" width="5.16" height="4.23" transform="translate(190.05 292.17) rotate(180)"></rect><path class="cls-3" d="M97.6,148.95h-5.16c-.41,0-.75-.34-.75-.75v-4.23c0-.41.34-.75.75-.75h5.16c.41,0,.75.34.75.75v4.23c0,.41-.34.75-.75.75ZM93.2,147.45h3.66v-2.73h-3.66v2.73Z"></path></g></g><g><g><rect class="cls-2" x="88.29" y="165.79" width="61.03" height="21.81" transform="translate(237.61 353.38) rotate(180)"></rect><path class="cls-3" d="M149.32,188.34h-61.04c-.41,0-.75-.34-.75-.75v-21.81c0-.41.34-.75.75-.75h61.04c.41,0,.75.34.75.75v21.81c0,.41-.34.75-.75.75ZM89.04,186.84h59.54v-20.31h-59.54v20.31Z"></path></g><path class="cls-3" d="M145.22,171.57c-.41,0-.75-.34-.75-.75v-2.12c0-.41.34-.75.75-.75s.75.34.75.75v2.12c0,.41-.34.75-.75.75Z"></path><path class="cls-3" d="M142.84,171.57c-.41,0-.75-.34-.75-.75v-2.12c0-.41.34-.75.75-.75s.75.34.75.75v2.12c0,.41-.34.75-.75.75Z"></path><path class="cls-3" d="M140.46,171.57c-.41,0-.75-.34-.75-.75v-2.12c0-.41.34-.75.75-.75s.75.34.75.75v2.12c0,.41-.34.75-.75.75Z"></path><path class="cls-3" d="M145.62,184.53h-11.11c-.41,0-.75-.34-.75-.75s.34-.75.75-.75h11.11c.41,0,.75.34.75.75s-.34.75-.75.75Z"></path><path class="cls-3" d="M131.6,184.53h-11.11c-.41,0-.75-.34-.75-.75s.34-.75.75-.75h11.11c.41,0,.75.34.75.75s-.34.75-.75.75Z"></path><path class="cls-3" d="M117.58,184.53h-22.75c-.41,0-.75-.34-.75-.75s.34-.75.75-.75h22.75c.41,0,.75.34.75.75s-.34.75-.75.75Z"></path><g><rect class="cls-1" x="92.44" y="169.23" width="5.16" height="4.23" transform="translate(190.05 342.7) rotate(180)"></rect><path class="cls-3" d="M97.6,174.21h-5.16c-.41,0-.75-.34-.75-.75v-4.23c0-.41.34-.75.75-.75h5.16c.41,0,.75.34.75.75v4.23c0,.41-.34.75-.75.75ZM93.2,172.71h3.66v-2.73h-3.66v2.73Z"></path></g></g><g><g><rect class="cls-1" x="88.29" y="191.05" width="61.03" height="21.81" transform="translate(237.61 403.91) rotate(180)"></rect><path class="cls-3" d="M149.32,213.61h-61.04c-.41,0-.75-.34-.75-.75v-21.81c0-.41.34-.75.75-.75h61.04c.41,0,.75.34.75.75v21.81c0,.41-.34.75-.75.75ZM89.04,212.11h59.54v-20.31h-59.54v20.31Z"></path></g><path class="cls-3" d="M145.22,196.83c-.41,0-.75-.34-.75-.75v-2.12c0-.41.34-.75.75-.75s.75.34.75.75v2.12c0,.41-.34.75-.75.75Z"></path><path class="cls-3" d="M142.84,196.83c-.41,0-.75-.34-.75-.75v-2.12c0-.41.34-.75.75-.75s.75.34.75.75v2.12c0,.41-.34.75-.75.75Z"></path><path class="cls-3" d="M140.46,196.83c-.41,0-.75-.34-.75-.75v-2.12c0-.41.34-.75.75-.75s.75.34.75.75v2.12c0,.41-.34.75-.75.75Z"></path><path class="cls-3" d="M145.62,209.8h-11.11c-.41,0-.75-.34-.75-.75s.34-.75.75-.75h11.11c.41,0,.75.34.75.75s-.34.75-.75.75Z"></path><path class="cls-3" d="M131.6,209.8h-11.11c-.41,0-.75-.34-.75-.75s.34-.75.75-.75h11.11c.41,0,.75.34.75.75s-.34.75-.75.75Z"></path><path class="cls-3" d="M117.58,209.8h-22.75c-.41,0-.75-.34-.75-.75s.34-.75.75-.75h22.75c.41,0,.75.34.75.75s-.34.75-.75.75Z"></path><g><rect class="cls-3" x="92.44" y="194.5" width="5.16" height="4.23" transform="translate(190.05 393.23) rotate(180)"></rect><path class="cls-3" d="M97.6,199.48h-5.16c-.41,0-.75-.34-.75-.75v-4.23c0-.41.34-.75.75-.75h5.16c.41,0,.75.34.75.75v4.23c0,.41-.34.75-.75.75ZM93.2,197.98h3.66v-2.73h-3.66v2.73Z"></path></g></g></g></g><g><g><g><g><rect class="cls-2" x="68.09" y="258.22" width="70.69" height="111.34"></rect><path class="cls-3" d="M138.78,370.31h-70.69c-.41,0-.75-.34-.75-.75v-111.34c0-.41.34-.75.75-.75h70.69c.41,0,.75.34.75.75v111.34c0,.41-.34.75-.75.75ZM68.84,368.81h69.19v-109.84h-69.19v109.84Z"></path></g><g><rect class="cls-2" x="48.9" y="278.42" width="70.69" height="111.34"></rect><path class="cls-3" d="M119.59,390.51H48.9c-.41,0-.75-.34-.75-.75v-111.34c0-.41.34-.75.75-.75h70.69c.41,0,.75.34.75.75v111.34c0,.41-.34.75-.75.75ZM49.65,389.01h69.19v-109.84H49.65v109.84Z"></path></g><g><polygon class="cls-2" points="138.78 258.22 119.59 278.42 48.9 278.42 68.09 258.22 138.78 258.22"></polygon><path class="cls-3" d="M119.59,279.17H48.9c-.3,0-.57-.18-.69-.45s-.06-.6.15-.81l19.19-20.2c.14-.15.34-.23.54-.23h70.69c.3,0,.57.18.69.45s.06.6-.15.81l-19.19,20.2c-.14.15-.34.23-.54.23ZM50.65,277.67h68.62l17.76-18.7h-68.62l-17.76,18.7Z"></path></g><g><polygon class="cls-2" points="138.78 369.56 119.59 389.76 119.59 278.42 138.78 258.22 138.78 369.56"></polygon><path class="cls-3" d="M119.59,390.51c-.09,0-.19-.02-.28-.05-.29-.11-.47-.39-.47-.7v-111.34c0-.19.07-.38.21-.52l19.19-20.2c.21-.22.54-.29.82-.18.29.11.47.39.47.7v111.34c0,.19-.07.38-.21.52l-19.19,20.2c-.14.15-.34.23-.54.23ZM120.34,278.72v109.16l17.69-18.62v-109.16l-17.69,18.62ZM138.78,369.56h0,0Z"></path></g></g><g><g><rect class="cls-1" x="53.93" y="285.45" width="61.03" height="21.81"></rect><path class="cls-3" d="M114.96,308.01h-61.03c-.41,0-.75-.34-.75-.75v-21.81c0-.41.34-.75.75-.75h61.03c.41,0,.75.34.75.75v21.81c0,.41-.34.75-.75.75ZM54.68,306.51h59.53v-20.31h-59.53v20.31Z"></path></g><path class="cls-3" d="M58.03,291.23c-.41,0-.75-.34-.75-.75v-2.12c0-.41.34-.75.75-.75s.75.34.75.75v2.12c0,.41-.34.75-.75.75Z"></path><path class="cls-3" d="M60.41,291.23c-.41,0-.75-.34-.75-.75v-2.12c0-.41.34-.75.75-.75s.75.34.75.75v2.12c0,.41-.34.75-.75.75Z"></path><path class="cls-3" d="M62.79,291.23c-.41,0-.75-.34-.75-.75v-2.12c0-.41.34-.75.75-.75s.75.34.75.75v2.12c0,.41-.34.75-.75.75Z"></path><path class="cls-3" d="M68.74,304.2h-11.11c-.41,0-.75-.34-.75-.75s.34-.75.75-.75h11.11c.41,0,.75.34.75.75s-.34.75-.75.75Z"></path><path class="cls-3" d="M82.76,304.2h-11.11c-.41,0-.75-.34-.75-.75s.34-.75.75-.75h11.11c.41,0,.75.34.75.75s-.34.75-.75.75Z"></path><path class="cls-3" d="M108.42,304.2h-22.75c-.41,0-.75-.34-.75-.75s.34-.75.75-.75h22.75c.41,0,.75.34.75.75s-.34.75-.75.75Z"></path><g><rect class="cls-3" x="105.65" y="288.9" width="5.16" height="4.23"></rect><path class="cls-3" d="M110.8,293.88h-5.16c-.41,0-.75-.34-.75-.75v-4.23c0-.41.34-.75.75-.75h5.16c.41,0,.75.34.75.75v4.23c0,.41-.34.75-.75.75ZM106.4,292.38h3.66v-2.73h-3.66v2.73Z"></path></g></g><g><g><rect class="cls-2" x="53.93" y="310.72" width="61.03" height="21.81"></rect><path class="cls-3" d="M114.96,333.27h-61.03c-.41,0-.75-.34-.75-.75v-21.81c0-.41.34-.75.75-.75h61.03c.41,0,.75.34.75.75v21.81c0,.41-.34.75-.75.75ZM54.68,331.77h59.53v-20.31h-59.53v20.31Z"></path></g><path class="cls-3" d="M58.03,316.5c-.41,0-.75-.34-.75-.75v-2.12c0-.41.34-.75.75-.75s.75.34.75.75v2.12c0,.41-.34.75-.75.75Z"></path><path class="cls-3" d="M60.41,316.5c-.41,0-.75-.34-.75-.75v-2.12c0-.41.34-.75.75-.75s.75.34.75.75v2.12c0,.41-.34.75-.75.75Z"></path><path class="cls-3" d="M62.79,316.5c-.41,0-.75-.34-.75-.75v-2.12c0-.41.34-.75.75-.75s.75.34.75.75v2.12c0,.41-.34.75-.75.75Z"></path><path class="cls-3" d="M68.74,329.46h-11.11c-.41,0-.75-.34-.75-.75s.34-.75.75-.75h11.11c.41,0,.75.34.75.75s-.34.75-.75.75Z"></path><path class="cls-3" d="M82.76,329.46h-11.11c-.41,0-.75-.34-.75-.75s.34-.75.75-.75h11.11c.41,0,.75.34.75.75s-.34.75-.75.75Z"></path><path class="cls-3" d="M100.22,329.46h-14.55c-.41,0-.75-.34-.75-.75s.34-.75.75-.75h14.55c.41,0,.75.34.75.75s-.34.75-.75.75Z"></path><g><rect class="cls-1" x="105.65" y="314.16" width="5.16" height="4.23"></rect><path class="cls-3" d="M110.8,319.14h-5.16c-.41,0-.75-.34-.75-.75v-4.23c0-.41.34-.75.75-.75h5.16c.41,0,.75.34.75.75v4.23c0,.41-.34.75-.75.75ZM106.4,317.64h3.66v-2.73h-3.66v2.73Z"></path></g></g><g><g><rect class="cls-2" x="53.93" y="335.98" width="61.03" height="21.81"></rect><path class="cls-3" d="M114.96,358.54h-61.03c-.41,0-.75-.34-.75-.75v-21.81c0-.41.34-.75.75-.75h61.03c.41,0,.75.34.75.75v21.81c0,.41-.34.75-.75.75ZM54.68,357.04h59.53v-20.31h-59.53v20.31Z"></path></g><path class="cls-3" d="M58.03,341.76c-.41,0-.75-.34-.75-.75v-2.12c0-.41.34-.75.75-.75s.75.34.75.75v2.12c0,.41-.34.75-.75.75Z"></path><path class="cls-3" d="M60.41,341.76c-.41,0-.75-.34-.75-.75v-2.12c0-.41.34-.75.75-.75s.75.34.75.75v2.12c0,.41-.34.75-.75.75Z"></path><path class="cls-3" d="M62.79,341.76c-.41,0-.75-.34-.75-.75v-2.12c0-.41.34-.75.75-.75s.75.34.75.75v2.12c0,.41-.34.75-.75.75Z"></path><path class="cls-3" d="M68.74,354.73h-11.11c-.41,0-.75-.34-.75-.75s.34-.75.75-.75h11.11c.41,0,.75.34.75.75s-.34.75-.75.75Z"></path><path class="cls-3" d="M82.76,354.73h-11.11c-.41,0-.75-.34-.75-.75s.34-.75.75-.75h11.11c.41,0,.75.34.75.75s-.34.75-.75.75Z"></path><path class="cls-3" d="M108.42,354.73h-22.75c-.41,0-.75-.34-.75-.75s.34-.75.75-.75h22.75c.41,0,.75.34.75.75s-.34.75-.75.75Z"></path><g><rect class="cls-1" x="105.65" y="339.43" width="5.16" height="4.23"></rect><path class="cls-3" d="M110.8,344.41h-5.16c-.41,0-.75-.34-.75-.75v-4.23c0-.41.34-.75.75-.75h5.16c.41,0,.75.34.75.75v4.23c0,.41-.34.75-.75.75ZM106.4,342.91h3.66v-2.73h-3.66v2.73Z"></path></g></g><g><g><rect class="cls-2" x="53.93" y="361.25" width="61.03" height="21.81"></rect><path class="cls-3" d="M114.96,383.8h-61.03c-.41,0-.75-.34-.75-.75v-21.81c0-.41.34-.75.75-.75h61.03c.41,0,.75.34.75.75v21.81c0,.41-.34.75-.75.75ZM54.68,382.3h59.53v-20.31h-59.53v20.31Z"></path></g><path class="cls-3" d="M58.03,367.03c-.41,0-.75-.34-.75-.75v-2.12c0-.41.34-.75.75-.75s.75.34.75.75v2.12c0,.41-.34.75-.75.75Z"></path><path class="cls-3" d="M60.41,367.03c-.41,0-.75-.34-.75-.75v-2.12c0-.41.34-.75.75-.75s.75.34.75.75v2.12c0,.41-.34.75-.75.75Z"></path><path class="cls-3" d="M62.79,367.03c-.41,0-.75-.34-.75-.75v-2.12c0-.41.34-.75.75-.75s.75.34.75.75v2.12c0,.41-.34.75-.75.75Z"></path><path class="cls-3" d="M68.74,379.99h-11.11c-.41,0-.75-.34-.75-.75s.34-.75.75-.75h11.11c.41,0,.75.34.75.75s-.34.75-.75.75Z"></path><path class="cls-3" d="M82.76,379.99h-11.11c-.41,0-.75-.34-.75-.75s.34-.75.75-.75h11.11c.41,0,.75.34.75.75s-.34.75-.75.75Z"></path><path class="cls-3" d="M108.42,379.99h-22.75c-.41,0-.75-.34-.75-.75s.34-.75.75-.75h22.75c.41,0,.75.34.75.75s-.34.75-.75.75Z"></path><g><rect class="cls-2" x="105.65" y="364.69" width="5.16" height="4.23"></rect><path class="cls-3" d="M110.8,369.67h-5.16c-.41,0-.75-.34-.75-.75v-4.23c0-.41.34-.75.75-.75h5.16c.41,0,.75.34.75.75v4.23c0,.41-.34.75-.75.75ZM106.4,368.17h3.66v-2.73h-3.66v2.73Z"></path></g></g></g><g><g><g><rect class="cls-2" x="361.22" y="258.22" width="70.69" height="111.34" transform="translate(793.13 627.78) rotate(180)"></rect><path class="cls-3" d="M431.91,370.31h-70.69c-.41,0-.75-.34-.75-.75v-111.34c0-.41.34-.75.75-.75h70.69c.41,0,.75.34.75.75v111.34c0,.41-.34.75-.75.75ZM361.97,368.81h69.19v-109.84h-69.19v109.84Z"></path></g><g><rect class="cls-2" x="380.41" y="278.42" width="70.69" height="111.34" transform="translate(831.51 668.18) rotate(180)"></rect><path class="cls-3" d="M451.1,390.51h-70.69c-.41,0-.75-.34-.75-.75v-111.34c0-.41.34-.75.75-.75h70.69c.41,0,.75.34.75.75v111.34c0,.41-.34.75-.75.75ZM381.16,389.01h69.19v-109.84h-69.19v109.84Z"></path></g><g><polygon class="cls-2" points="361.22 258.22 380.41 278.42 451.1 278.42 431.91 258.22 361.22 258.22"></polygon><path class="cls-3" d="M451.1,279.17h-70.69c-.21,0-.4-.08-.54-.23l-19.19-20.2c-.21-.22-.26-.54-.15-.81s.39-.45.69-.45h70.69c.21,0,.4.08.54.23l19.19,20.2c.21.22.26.54.15.81s-.39.45-.69.45ZM380.73,277.67h68.62l-17.76-18.7h-68.62l17.76,18.7Z"></path></g><g><polygon class="cls-2" points="361.22 369.56 380.41 389.76 380.41 278.42 361.22 258.22 361.22 369.56"></polygon><path class="cls-3" d="M380.41,390.51c-.2,0-.4-.08-.54-.23l-19.19-20.2c-.13-.14-.21-.32-.21-.52v-111.34c0-.31.19-.58.47-.7.29-.11.61-.04.82.18l19.19,20.2c.13.14.21.32.21.52v111.34c0,.31-.19.58-.47.7-.09.04-.18.05-.28.05ZM361.97,369.26l17.69,18.62v-109.16l-17.69-18.62v109.16Z"></path></g></g><g><g><rect class="cls-2" x="385.04" y="285.45" width="61.03" height="21.81" transform="translate(831.11 592.71) rotate(180)"></rect><path class="cls-3" d="M446.07,308.01h-61.04c-.41,0-.75-.34-.75-.75v-21.81c0-.41.34-.75.75-.75h61.04c.41,0,.75.34.75.75v21.81c0,.41-.34.75-.75.75ZM385.79,306.51h59.54v-20.31h-59.54v20.31Z"></path></g><path class="cls-3" d="M441.97,291.23c-.41,0-.75-.34-.75-.75v-2.12c0-.41.34-.75.75-.75s.75.34.75.75v2.12c0,.41-.34.75-.75.75Z"></path><path class="cls-3" d="M439.59,291.23c-.41,0-.75-.34-.75-.75v-2.12c0-.41.34-.75.75-.75s.75.34.75.75v2.12c0,.41-.34.75-.75.75Z"></path><path class="cls-3" d="M437.21,291.23c-.41,0-.75-.34-.75-.75v-2.12c0-.41.34-.75.75-.75s.75.34.75.75v2.12c0,.41-.34.75-.75.75Z"></path><path class="cls-3" d="M442.37,304.2h-11.11c-.41,0-.75-.34-.75-.75s.34-.75.75-.75h11.11c.41,0,.75.34.75.75s-.34.75-.75.75Z"></path><path class="cls-3" d="M428.35,304.2h-11.11c-.41,0-.75-.34-.75-.75s.34-.75.75-.75h11.11c.41,0,.75.34.75.75s-.34.75-.75.75Z"></path><path class="cls-3" d="M414.33,304.2h-22.75c-.41,0-.75-.34-.75-.75s.34-.75.75-.75h22.75c.41,0,.75.34.75.75s-.34.75-.75.75Z"></path><g><rect class="cls-2" x="389.2" y="288.9" width="5.16" height="4.23" transform="translate(783.55 582.03) rotate(180)"></rect><path class="cls-3" d="M394.35,293.88h-5.16c-.41,0-.75-.34-.75-.75v-4.23c0-.41.34-.75.75-.75h5.16c.41,0,.75.34.75.75v4.23c0,.41-.34.75-.75.75ZM389.95,292.38h3.66v-2.73h-3.66v2.73Z"></path></g></g><g><g><rect class="cls-1" x="385.04" y="310.72" width="61.03" height="21.81" transform="translate(831.11 643.24) rotate(180)"></rect><path class="cls-3" d="M446.07,333.27h-61.04c-.41,0-.75-.34-.75-.75v-21.81c0-.41.34-.75.75-.75h61.04c.41,0,.75.34.75.75v21.81c0,.41-.34.75-.75.75ZM385.79,331.77h59.54v-20.31h-59.54v20.31Z"></path></g><path class="cls-3" d="M441.97,316.5c-.41,0-.75-.34-.75-.75v-2.12c0-.41.34-.75.75-.75s.75.34.75.75v2.12c0,.41-.34.75-.75.75Z"></path><path class="cls-3" d="M439.59,316.5c-.41,0-.75-.34-.75-.75v-2.12c0-.41.34-.75.75-.75s.75.34.75.75v2.12c0,.41-.34.75-.75.75Z"></path><path class="cls-3" d="M437.21,316.5c-.41,0-.75-.34-.75-.75v-2.12c0-.41.34-.75.75-.75s.75.34.75.75v2.12c0,.41-.34.75-.75.75Z"></path><path class="cls-3" d="M442.37,329.46h-11.11c-.41,0-.75-.34-.75-.75s.34-.75.75-.75h11.11c.41,0,.75.34.75.75s-.34.75-.75.75Z"></path><path class="cls-3" d="M428.35,329.46h-11.11c-.41,0-.75-.34-.75-.75s.34-.75.75-.75h11.11c.41,0,.75.34.75.75s-.34.75-.75.75Z"></path><path class="cls-3" d="M414.33,329.46h-14.55c-.41,0-.75-.34-.75-.75s.34-.75.75-.75h14.55c.41,0,.75.34.75.75s-.34.75-.75.75Z"></path><g><rect class="cls-3" x="389.2" y="314.16" width="5.16" height="4.23" transform="translate(783.55 632.56) rotate(180)"></rect><path class="cls-3" d="M394.35,319.14h-5.16c-.41,0-.75-.34-.75-.75v-4.23c0-.41.34-.75.75-.75h5.16c.41,0,.75.34.75.75v4.23c0,.41-.34.75-.75.75ZM389.95,317.64h3.66v-2.73h-3.66v2.73Z"></path></g></g><g><g><rect class="cls-2" x="385.04" y="335.98" width="61.03" height="21.81" transform="translate(831.11 693.77) rotate(180)"></rect><path class="cls-3" d="M446.07,358.54h-61.04c-.41,0-.75-.34-.75-.75v-21.81c0-.41.34-.75.75-.75h61.04c.41,0,.75.34.75.75v21.81c0,.41-.34.75-.75.75ZM385.79,357.04h59.54v-20.31h-59.54v20.31Z"></path></g><path class="cls-3" d="M441.97,341.76c-.41,0-.75-.34-.75-.75v-2.12c0-.41.34-.75.75-.75s.75.34.75.75v2.12c0,.41-.34.75-.75.75Z"></path><path class="cls-3" d="M439.59,341.76c-.41,0-.75-.34-.75-.75v-2.12c0-.41.34-.75.75-.75s.75.34.75.75v2.12c0,.41-.34.75-.75.75Z"></path><path class="cls-3" d="M437.21,341.76c-.41,0-.75-.34-.75-.75v-2.12c0-.41.34-.75.75-.75s.75.34.75.75v2.12c0,.41-.34.75-.75.75Z"></path><path class="cls-3" d="M442.37,354.73h-11.11c-.41,0-.75-.34-.75-.75s.34-.75.75-.75h11.11c.41,0,.75.34.75.75s-.34.75-.75.75Z"></path><path class="cls-3" d="M428.35,354.73h-11.11c-.41,0-.75-.34-.75-.75s.34-.75.75-.75h11.11c.41,0,.75.34.75.75s-.34.75-.75.75Z"></path><path class="cls-3" d="M414.33,354.73h-22.75c-.41,0-.75-.34-.75-.75s.34-.75.75-.75h22.75c.41,0,.75.34.75.75s-.34.75-.75.75Z"></path><g><rect class="cls-2" x="389.2" y="339.43" width="5.16" height="4.23" transform="translate(783.55 683.09) rotate(180)"></rect><path class="cls-3" d="M394.35,344.41h-5.16c-.41,0-.75-.34-.75-.75v-4.23c0-.41.34-.75.75-.75h5.16c.41,0,.75.34.75.75v4.23c0,.41-.34.75-.75.75ZM389.95,342.91h3.66v-2.73h-3.66v2.73Z"></path></g></g><g><g><rect class="cls-2" x="385.04" y="361.25" width="61.03" height="21.81" transform="translate(831.11 744.3) rotate(180)"></rect><path class="cls-3" d="M446.07,383.8h-61.04c-.41,0-.75-.34-.75-.75v-21.81c0-.41.34-.75.75-.75h61.04c.41,0,.75.34.75.75v21.81c0,.41-.34.75-.75.75ZM385.79,382.3h59.54v-20.31h-59.54v20.31Z"></path></g><path class="cls-3" d="M441.97,367.03c-.41,0-.75-.34-.75-.75v-2.12c0-.41.34-.75.75-.75s.75.34.75.75v2.12c0,.41-.34.75-.75.75Z"></path><path class="cls-3" d="M439.59,367.03c-.41,0-.75-.34-.75-.75v-2.12c0-.41.34-.75.75-.75s.75.34.75.75v2.12c0,.41-.34.75-.75.75Z"></path><path class="cls-3" d="M437.21,367.03c-.41,0-.75-.34-.75-.75v-2.12c0-.41.34-.75.75-.75s.75.34.75.75v2.12c0,.41-.34.75-.75.75Z"></path><path class="cls-3" d="M442.37,379.99h-11.11c-.41,0-.75-.34-.75-.75s.34-.75.75-.75h11.11c.41,0,.75.34.75.75s-.34.75-.75.75Z"></path><path class="cls-3" d="M428.35,379.99h-11.11c-.41,0-.75-.34-.75-.75s.34-.75.75-.75h11.11c.41,0,.75.34.75.75s-.34.75-.75.75Z"></path><path class="cls-3" d="M414.33,379.99h-22.75c-.41,0-.75-.34-.75-.75s.34-.75.75-.75h22.75c.41,0,.75.34.75.75s-.34.75-.75.75Z"></path><g><rect class="cls-1" x="389.2" y="364.69" width="5.16" height="4.23" transform="translate(783.55 733.62) rotate(180)"></rect><path class="cls-3" d="M394.35,369.67h-5.16c-.41,0-.75-.34-.75-.75v-4.23c0-.41.34-.75.75-.75h5.16c.41,0,.75.34.75.75v4.23c0,.41-.34.75-.75.75ZM389.95,368.17h3.66v-2.73h-3.66v2.73Z"></path></g></g></g></g></g><g id="Laptop"><g id="Laptop-2" data-name="Laptop"><g><path class="cls-2" d="M204.29,174.68h90.18c3.11,0,5.64,2.53,5.64,5.64v59.42c0,1.12-.91,2.04-2.04,2.04h-97.4c-1.12,0-2.04-.91-2.04-2.04v-59.42c0-3.11,2.53-5.64,5.64-5.64Z"></path><path class="cls-3" d="M298.08,242.53h-97.4c-1.54,0-2.79-1.25-2.79-2.79v-59.42c0-3.52,2.87-6.39,6.39-6.39h90.18c3.52,0,6.39,2.87,6.39,6.39v59.42c0,1.54-1.25,2.79-2.79,2.79ZM204.29,175.43c-2.7,0-4.89,2.19-4.89,4.89v59.42c0,.71.58,1.29,1.29,1.29h97.4c.71,0,1.29-.58,1.29-1.29v-59.42c0-2.7-2.19-4.89-4.89-4.89h-90.18Z"></path></g><path class="cls-1" d="M204.29,178.54h89.8c1.51,0,2.73,1.22,2.73,2.73v51.04c0,1.51-1.22,2.73-2.73,2.73h-89.8c-1.51,0-2.73-1.22-2.73-2.73v-51.04c0-1.51,1.22-2.73,2.73-2.73Z"></path><g><g><path class="cls-2" d="M311.32,278.13v2.63c0,1.04-.85,1.88-1.88,1.88h-120.5c-1.04,0-1.88-.84-1.88-1.88v-2.64c0-.51.42-.93.93-.93h122.4c.51,0,.93.42.93.93Z"></path><path class="cls-3" d="M309.44,283.39h-120.5c-1.45,0-2.63-1.18-2.63-2.63v-2.64c0-.93.75-1.68,1.68-1.68h122.4c.93,0,1.68.75,1.68,1.68v2.63c0,1.45-1.18,2.63-2.63,2.63ZM188,277.95c-.1,0-.18.08-.18.18v2.64c0,.62.51,1.13,1.13,1.13h120.5c.63,0,1.13-.51,1.13-1.13v-2.63c0-.1-.08-.18-.18-.18h-122.4Z"></path></g><g><path class="cls-2" d="M204.37,240.24c-2.9,0-5.47,1.85-6.4,4.59l-10.82,31.95c-.2.58-.11,1.2.25,1.7.36.5.92.78,1.53.78h120.48c.62,0,1.17-.29,1.53-.78s.45-1.12.25-1.7l-10.82-31.95c-.93-2.74-3.5-4.59-6.4-4.59h-89.6Z"></path><path class="cls-3" d="M309.41,280.01h-120.48c-.86,0-1.64-.4-2.14-1.1-.5-.69-.63-1.56-.36-2.38l10.82-31.95c1.03-3.05,3.89-5.1,7.11-5.1h89.6c3.22,0,6.08,2.05,7.11,5.1l10.82,31.95c.28.81.15,1.68-.35,2.38-.5.7-1.28,1.1-2.14,1.1ZM204.37,240.99c-2.58,0-4.86,1.64-5.69,4.08l-10.82,31.95c-.12.35-.06.72.15,1.02.22.3.55.47.92.47h120.48c.38,0,.7-.17.92-.47.21-.3.27-.67.15-1.02l-10.82-31.95c-.83-2.44-3.11-4.08-5.69-4.08h-89.6Z"></path></g><g><path class="cls-3" d="M297.16,260.76h-95.72c-.56,0-1.07-.26-1.41-.71s-.43-1.01-.27-1.55l3.85-12.97c.24-.82,1.01-1.39,1.86-1.39h87.22c.96,0,1.81.64,2.08,1.56l3.88,13.06c.14.47.05.98-.24,1.37-.3.4-.75.63-1.25.63h0Z"></path><path class="cls-3" d="M297.17,261.51h-95.73c-.8,0-1.53-.37-2.01-1.01-.48-.64-.62-1.45-.39-2.21l3.85-12.97c.33-1.13,1.4-1.92,2.58-1.92h87.22c1.28,0,2.43.86,2.8,2.09l3.88,13.06c.21.7.08,1.44-.36,2.03-.45.59-1.12.93-1.85.93ZM205.47,244.89c-.52,0-.99.35-1.14.85l-3.85,12.97c-.09.31-.04.63.16.89.19.26.48.4.8.4h95.73c.25,0,.49-.12.65-.33.15-.2.2-.46.12-.71l-3.88-13.06c-.18-.6-.74-1.02-1.37-1.02h-87.22Z"></path></g><g><path class="cls-3" d="M265.76,275.19h-33.18c-.57,0-1.1-.25-1.45-.7s-.49-1.01-.37-1.57l1.59-7.21c.29-1.3,1.46-2.24,2.79-2.24h28.08c1.33,0,2.5.94,2.79,2.24l1.59,7.21c.12.56-.01,1.13-.37,1.57s-.89.7-1.45.7h0Z"></path><path class="cls-3" d="M265.76,275.94h-33.18c-.79,0-1.54-.36-2.04-.98-.5-.62-.69-1.42-.52-2.2l1.59-7.21c.36-1.64,1.84-2.83,3.52-2.83h28.08c1.68,0,3.16,1.19,3.52,2.83l1.59,7.21c.17.78-.02,1.58-.52,2.2-.5.62-1.24.98-2.04.98ZM235.13,264.22c-.98,0-1.85.7-2.06,1.66l-1.59,7.21c-.07.33,0,.68.22.94.21.27.53.42.87.42h33.18c.34,0,.66-.15.87-.42.21-.26.29-.61.22-.94l-1.59-7.21c-.21-.96-1.08-1.66-2.06-1.66h-28.08Z"></path></g></g></g><g><g><g><rect class="cls-3" x="212.73" y="189.82" width="39.48" height="23.42" rx="1.13" ry="1.13"></rect><path class="cls-3" d="M251.07,213.99h-37.21c-1.04,0-1.88-.84-1.88-1.88v-21.15c0-1.04.84-1.88,1.88-1.88h37.21c1.04,0,1.88.84,1.88,1.88v21.15c0,1.04-.84,1.88-1.88,1.88ZM213.86,190.57c-.21,0-.38.17-.38.38v21.15c0,.21.17.38.38.38h37.21c.21,0,.38-.17.38-.38v-21.15c0-.21-.17-.38-.38-.38h-37.21Z"></path></g><g><rect class="cls-2" x="207.44" y="185.49" width="39.48" height="23.42" rx="1.13" ry="1.13"></rect><path class="cls-3" d="M245.78,209.66h-37.21c-1.04,0-1.88-.84-1.88-1.88v-21.15c0-1.04.84-1.88,1.88-1.88h37.21c1.04,0,1.88.84,1.88,1.88v21.15c0,1.04-.84,1.88-1.88,1.88ZM208.57,186.24c-.21,0-.38.17-.38.38v21.15c0,.21.17.38.38.38h37.21c.21,0,.38-.17.38-.38v-21.15c0-.21-.17-.38-.38-.38h-37.21Z"></path></g></g><g><path class="cls-3" d="M235.5,191.03h-23.48c-.41,0-.75-.34-.75-.75s.34-.75.75-.75h23.48c.41,0,.75.34.75.75s-.34.75-.75.75Z"></path><g><path class="cls-3" d="M242.34,194.25h-30.32c-.41,0-.75-.34-.75-.75s.34-.75.75-.75h30.32c.41,0,.75.34.75.75s-.34.75-.75.75Z"></path><path class="cls-3" d="M242.34,197.79h-30.32c-.41,0-.75-.34-.75-.75s.34-.75.75-.75h30.32c.41,0,.75.34.75.75s-.34.75-.75.75Z"></path><path class="cls-3" d="M242.34,201.33h-30.32c-.41,0-.75-.34-.75-.75s.34-.75.75-.75h30.32c.41,0,.75.34.75.75s-.34.75-.75.75Z"></path><path class="cls-3" d="M242.34,204.87h-30.32c-.41,0-.75-.34-.75-.75s.34-.75.75-.75h30.32c.41,0,.75.34.75.75s-.34.75-.75.75Z"></path></g></g></g><g><g><g><polygon class="cls-3" points="289.87 229.07 260.97 229.07 260.97 229.07 260.97 208.01 260.97 208.01 289.87 208.01 289.87 229.07"></polygon><path class="cls-3" d="M289.87,229.82h-28.9c-.41,0-.75-.34-.75-.75v-21.05c0-.41.34-.75.75-.75h28.9c.41,0,.75.34.75.75v21.05c0,.41-.34.75-.75.75ZM261.72,228.32h27.4s0-19.55,0-19.55h-27.4v19.55Z"></path></g><g><polygon class="cls-2" points="286 225.17 257.1 225.17 257.1 225.17 257.1 204.12 257.1 204.12 286 204.12 286 225.17"></polygon><path class="cls-3" d="M286,225.92h-28.9c-.41,0-.75-.34-.75-.75v-21.05c0-.41.34-.75.75-.75h28.9c.2,0,.39.08.53.22s.22.33.22.53v21.05c0,.41-.34.75-.75.75ZM257.85,224.42h27.4s0-19.55,0-19.55h-27.4v19.55Z"></path></g></g><g><path class="cls-3" d="M277.64,209.17h-17.19c-.41,0-.75-.34-.75-.75s.34-.75.75-.75h17.19c.41,0,.75.34.75.75s-.34.75-.75.75Z"></path><g><path class="cls-3" d="M282.65,212.07h-22.2c-.41,0-.75-.34-.75-.75s.34-.75.75-.75h22.2c.41,0,.75.34.75.75s-.34.75-.75.75Z"></path><path class="cls-3" d="M282.65,215.25h-22.2c-.41,0-.75-.34-.75-.75s.34-.75.75-.75h22.2c.41,0,.75.34.75.75s-.34.75-.75.75Z"></path><path class="cls-3" d="M282.65,218.44h-22.2c-.41,0-.75-.34-.75-.75s.34-.75.75-.75h22.2c.41,0,.75.34.75.75s-.34.75-.75.75Z"></path><path class="cls-3" d="M282.65,221.62h-22.2c-.41,0-.75-.34-.75-.75s.34-.75.75-.75h22.2c.41,0,.75.34.75.75s-.34.75-.75.75Z"></path></g></g></g></g></svg>