<svg transform="scale(2)" version="1.1" id="UIH3KPblla" xmlns="http://www.w3.org/2000/svg" xmlns:xlink="http://www.w3.org/1999/xlink" x="0px" y="0px" viewBox="0 0 500 500" xml:space="preserve" class="pbimage_pbimage__wrapper__image__0LEis false"><title>Inbox Empty 1</title><style type="text/css"> .st0{fill:#000005;} .st1{fill:#FFFFFF;} .st2{fill:#59BE4C;}
 .st2{fill:#475046;}
 .st1{fill:#FFFFFF;}
 .st0{fill:#000005;}</style><g id="mail"><path class="st0" d="M249.9,120.6c-3.5,0-170.3,121.2-170.3,121.2L250,349l170.4-107.2C420.4,241.8,253.4,120.6,249.9,120.6z" fill="#000005"></path><path class="st0" d="M249.4,119.9c-0.7,0.1-1.4,0.5-2,0.9c-1.2,0.7-2.4,1.5-3.6,2.3c-4.3,2.9-8.6,5.8-12.8,8.8
		c-13.7,9.5-27.3,19.2-40.8,28.9c-16.3,11.7-32.6,23.3-48.8,35.1c-14,10.1-28.1,20.3-42.1,30.4l-13.7,9.9c-2.2,1.6-4.5,3.1-6.6,4.8
		c-0.1,0.1-0.2,0.1-0.3,0.2c-0.2,0.1-0.3,0.4-0.2,0.6c0,0.1,0.1,0.2,0.2,0.2l17,10.7l40.7,25.6l49.2,31l42.6,26.8
		c6.9,4.3,13.7,8.8,20.6,13l0.3,0.2c0.6,0.4,1.3,0.5,1.9,0.2l17-10.7l40.7-25.6l49.3-31l42.5-26.7l13.9-8.8c2.2-1.4,4.6-2.6,6.7-4.2
		l0.3-0.2c0.3-0.2,0.2-0.6,0-0.8c-5.6-4.1-11.2-8.1-16.8-12.2c-13.5-9.7-26.9-19.5-40.4-29.2c-16.3-11.8-32.6-23.5-48.9-35.2
		c-14.1-10.1-28.3-20.2-42.6-30.2c-4.7-3.3-9.5-6.6-14.3-9.8c-2.3-1.7-4.7-3.3-7.3-4.6c-0.4-0.2-0.9-0.4-1.4-0.4
		c-1.7-0.1-0.7,1.2,0.4,1.3c-0.4,0-0.9-0.3-0.3,0l1,0.6c1.3,0.8,2.6,1.7,4,2.6c4.4,2.9,8.7,5.9,13.1,9c13.7,9.6,27.3,19.3,41,29
		c16.2,11.6,32.4,23.2,48.5,34.9c13.9,10,27.8,20,41.7,30.1l13.6,9.9l4.2,3.1c0.7,0.6,1.4,1.2,2.2,1.6c0.1,0.1,0.2,0.1,0.3,0.2
		l-0.1-0.8l-17,10.7l-40.7,25.6l-49.3,31l-42.5,26.7l-13.9,8.8c-2.1,1.4-4.7,2.6-6.7,4.2c-0.1,0.1-0.2,0.1-0.3,0.2l1.9,0.2L234,338
		l-40.7-25.6l-49.2-31l-42.6-26.7l-14-8.8l-4.4-2.8c-0.7-0.6-1.5-1.1-2.3-1.4c-0.1,0-0.2-0.1-0.3-0.2l0.1,0.8c5.5-4,11-8,16.6-12
		c13.3-9.6,26.6-19.3,39.9-28.9c16.2-11.7,32.4-23.4,48.6-35c14.1-10.1,28.3-20.2,42.5-30.2c4.8-3.4,9.6-6.8,14.5-10
		c2.4-1.7,4.9-3.4,7.5-4.8c0.4-0.2,0.4-0.1,0.1-0.1c0.5,0,0.8-0.3,0.6-0.7S249.8,119.9,249.4,119.9z" fill="#000005"></path><polygon class="st1" points="250,349 79.6,241.8 79.6,440.2 420.4,440.2 420.4,241.8 	" fill="#FFFFFF"></polygon><path class="st0" d="M251.6,347.3l-16.9-10.7L193.9,311l-49.2-31l-42.6-26.8l-13.9-8.8c-2.2-1.4-4.4-3-6.7-4.2
		c-0.1-0.1-0.2-0.1-0.3-0.2c-1.4-0.9-4,0.7-4,2.3v190.4c0,2.5-0.2,5.2,0,7.7c0,0.1,0,0.2,0,0.3c0,1,1.1,1.2,1.9,1.2H406
		c4.4,0,8.8,0.1,13.3,0h0.6c1.3,0,2.9-1.1,2.9-2.5V249.2c0-2.6,0.2-5.2,0-7.7c0-0.1,0-0.2,0-0.3c0-1.9-2.8-1.1-3.7-0.6l-17,10.7
		l-40.7,25.6l-49.3,31l-42.5,26.7c-6.9,4.3-13.9,8.4-20.6,13c-0.1,0.1-0.2,0.1-0.3,0.2c-0.8,0.5-1.5,1.8-0.7,2.6s2.4,0.3,3.3-0.2
		l17-10.7l40.7-25.6l49.3-31l42.5-26.7l13.9-8.8c2.2-1.4,4.6-2.6,6.7-4.2l0.3-0.2l-3.7-0.6v190.4c0,2.5-0.2,5.2,0,7.7
		c0,0.1,0,0.2,0,0.3l2.9-2.5H94c-4.4,0-8.9-0.3-13.3,0c-0.2,0-0.4,0-0.6,0l1.8,1.2V249.2c0-2.5,0.2-5.2,0-7.7c0-0.1,0-0.2,0-0.3
		l-4,2.3l17,10.7l40.7,25.6l49.2,31l42.5,26.8l13.9,8.8c2.2,1.4,4.4,3,6.7,4.2l0.3,0.2C250.2,351.8,253.9,348.7,251.6,347.3z" fill="#000005"></path><path class="st1" d="M164.6,182.4l2.2,4.5l6.1,12.2l9,18.1l10.9,22l12,24.2l12.2,24.3l11.3,22.7l9.6,19.2l6.9,13.8
		c1.1,2.2,2,4.5,3.3,6.6c0.1,0.1,0.1,0.2,0.1,0.3c0.6,1.1,4.2,0.4,3.5-1l-2.2-4.5l-6.1-12.2l-9-18.1l-10.9-22l-12-24.1L199.3,244
		l-11.3-22.7l-9.6-19.2l-6.9-13.8c-1.1-2.2-2-4.5-3.3-6.6l-0.1-0.3C167.5,180.3,163.9,181.1,164.6,182.4L164.6,182.4z" fill="#FFFFFF"></path><path class="st1" d="M125.9,210.9l2.9,3.5l8,9.6l11.8,14.1l14.3,17.2l15.7,18.8l15.9,19.1l14.8,17.7l12.5,15l9,10.8
		c1.4,1.7,2.8,3.5,4.2,5.1c0.1,0.1,0.1,0.1,0.2,0.2c0.8,1,3.9-1.2,3.1-2l-2.9-3.5l-8-9.6L215.8,313l-14.3-17.2l-15.7-18.9
		l-15.9-19.1l-14.8-17.7l-12.5-15l-9-10.8c-1.4-1.7-2.8-3.5-4.2-5.1c-0.1-0.1-0.1-0.1-0.2-0.2C128.3,207.9,125.3,210.1,125.9,210.9
		L125.9,210.9z" fill="#FFFFFF"></path><path class="st1" d="M116.4,262c0.1-3.3,0.8-6.6,2-9.7c2.3-6.4,6.5-12,12.8-14.8c5-2.3,10.6-2.7,16.1-2.2c0.6,0.1,1.3-0.3,1.4-0.9
		c0,0,0,0,0,0c0.4-3.3,1.3-6.5,2.8-9.5c2.9-6,7.8-10.7,14.5-12c5.7-1.1,11.5,0,17,1.8c0.7,0.2,1.8,0,1.9-0.8s-1-1.6-1.7-1.8
		c-9.1-3-19.8-4-27.9,2.1c-4.9,3.7-7.8,9.4-9.3,15.3c-0.4,1.3-0.6,2.6-0.8,4l1.4-0.9c-9.3-0.9-19.1,1-25.6,8.1
		c-4,4.7-6.7,10.4-7.6,16.5c-0.2,1.3-0.4,2.6-0.4,3.9C112.8,262.7,116.3,263.9,116.4,262L116.4,262z" fill="#FFFFFF"></path><path class="st1" d="M146.3,280.4c-0.9-3.2-1.3-6.5-1.2-9.8c0.2-5.6,2.6-11.1,8.3-12.9c5.1-1.5,10.8-0.3,15.7,1.2
		c0,0,0.9,0.3,0.9,0.1c1.7-7.8,7-16.2,15-18.5c4.1-1.1,8.5-0.9,12.5,0.5c0.3,0.1,1.1,0.4,0.8-0.1s-1.8-0.9-2.3-1.1
		c-6.9-2.2-14.3-2.4-20.2,2.3c-3.8,3.3-6.6,7.5-8.2,12.3c-0.4,1-0.7,2.1-1,3.2l1,0.1c-7-2.2-17.9-4.7-23.2,2.3
		c-3.1,4.2-3.1,10-2.4,14.9c0.2,1.3,0.4,2.6,0.8,3.9c0.1,0.5,1.2,0.8,1.6,1C145.1,280.2,145.7,280.3,146.3,280.4L146.3,280.4z" fill="#FFFFFF"></path><path class="st1" d="M171,296.8c-0.4-2.3-0.5-4.6-0.3-6.9c0.1-1.9,0.6-3.8,1.4-5.5c0.4-0.8,0.9-1.5,1.5-2.1c0.6-0.5,1.3-1,2-1.2
		c0.5-0.2,1-0.3,1.5-0.3c0.6,0,1.3,0,1.9,0c2,0.2,4,0.7,5.9,1.5c0.9,0.3,3,0,3-1.2c0,0,0-0.1,0-0.1c-0.1,0.5,0-0.2,0-0.3
		c0.1-0.6,0.1-1.1,0.2-1.7c0.3-1.8,0.7-3.6,1.3-5.3c0.6-2,1.6-3.9,2.9-5.6c0.6-0.8,1.4-1.5,2.2-2.1c0.4-0.3,0.8-0.5,1.2-0.7
		c0.2-0.1,0.3-0.2,0.5-0.2c0.2-0.1,0.4-0.1,0.6-0.2c3.1-0.7,6.8,0.7,9.8,2.3c0.8,0.4,1.8,0.4,2.6-0.1c0.5-0.2,1.2-1,0.4-1.5
		c-5.9-3.1-13.6-4.7-19.1,0.2c-3.5,3.1-5.2,7.9-6.1,12.4c-0.2,1.2-0.4,2.3-0.5,3.5l3-1.2c-5.6-2-13.4-3.2-17.6,2.2
		c-2.6,3.2-2.9,7.8-2.7,11.8c0,1,0.2,2.1,0.4,3.1c0.3,1.4,4,0.7,3.7-0.6L171,296.8z" fill="#FFFFFF"></path><path class="st1" d="M191.8,310.6c-0.2-0.6-0.2-1.2-0.2-1.9c-0.1-1.4,0-2.9,0.4-4.3c1.6-4.9,6.8-4.9,11.1-4
		c0.4,0.1,0.7-0.2,0.8-0.6c0-0.1,0-0.3,0-0.4c0-0.4,0.1-0.8,0.1-0.9c0.2-1.2,0.5-2.4,1-3.5c1.1-3,3.5-5.3,6.6-6.1
		c2.8-0.5,5.6-0.2,8.2,0.9c0.7,0.3,1.2-0.2,1.1-0.9c-0.2-0.9-0.9-1.6-1.7-2c-4.4-1.6-9.6-2.3-13.4,0.9c-2.3,2.1-3.8,4.8-4.3,7.8
		c-0.2,0.8-0.3,1.5-0.4,2.3l0.8-0.6c-3.8-0.8-8.7-1.1-11.3,2.4c-1.5,2.2-2,4.9-1.7,7.6c0,0.7,0.1,1.5,0.3,2.2c0.2,0.9,0.9,1.6,1.7,2
		C191.4,311.7,191.9,311.3,191.8,310.6L191.8,310.6z" fill="#FFFFFF"></path><path class="st1" d="M208.7,321.4C208.7,321.1,208.8,321.8,208.7,321.4c0-0.4-0.1-0.7-0.1-1.1c0-0.4,0-0.9,0-1.3
		c0-0.1,0.1-0.8,0.1-0.5c0-0.3,0.1-0.5,0.2-0.8c0.1-0.4,0.3-0.8,0.6-1.1c0.2-0.3,0.5-0.5,0.9-0.7c0.5-0.2,1.1-0.3,1.6-0.3
		c1,0,2,0.2,3,0.5c1,0.2,2.3-0.3,2.4-1.4c0-0.2,0-0.4,0-0.6c0-0.2,0.1-0.4,0.1-0.6s0.1-0.5,0-0.1c0-0.1,0.1-0.3,0.1-0.4
		c0.1-0.6,0.3-1.2,0.5-1.8c0.1-0.4,0.2-0.7,0.4-1l0.2-0.5c0-0.1,0.1-0.2,0.1-0.3c0.3-0.6,0.8-1.2,1.3-1.6c0.1-0.1,0.3-0.2,0.5-0.4
		s0.4-0.3,0.1-0.1c0.2-0.1,0.4-0.2,0.6-0.3l0.3-0.1c-0.2,0.1-0.2,0.1,0,0c0.8-0.2,1.6-0.2,2.4,0c1.3,0.3,2.6,0.9,3.8,1.6
		c1.7,1,4-1.3,1.9-2.5c-3.6-2-8.4-3.2-11.9-0.4c-2,1.8-3.3,4.3-3.7,7c-0.1,0.7-0.2,1.5-0.3,2.2l2.4-1.4c-3.8-1-8.7-1-10.5,3.2
		c-0.7,1.8-0.8,3.7-0.3,5.6c0.4,1.7,4.1,1.2,3.6-0.8L208.7,321.4z" fill="#FFFFFF"></path><path class="st1" d="M240.2,326.5c-1.3-0.9-2.6-1.6-4.1-2.1c-1.1-0.4-2.3-0.5-3.5-0.3c-1.3,0.3-2.4,1.2-3,2.4c-1,2-0.9,4.4-0.8,6.6
		c0.1,0.4,0.4,0.8,0.7,1.1c0.4,0.3,0.9,0.5,1.4,0.5c0.7,0.1,1.4-0.4,1.5-1.1c0-0.1,0-0.2,0-0.3c0-0.1,0-0.4,0-0.1c0-0.1,0-0.3,0-0.5
		s0-0.5,0-0.8c0-0.5,0-1,0.1-1.4c0-0.4,0.1-0.8,0.2-1.1c0-0.1,0-0.2,0-0.2s-0.1,0.2,0,0.2c0,0,0-0.1,0-0.1c0.1-0.1,0.1-0.3,0.2-0.4
		c0.1-0.3,0.2-0.5,0.4-0.8c0.1-0.2,0,0.1-0.1,0.1c0,0,0.1-0.1,0.1-0.1c0.1-0.1,0.2-0.2,0.2-0.3l0.2-0.2c0.1-0.1-0.4,0.2-0.2,0.1
		c0.1,0,0.1-0.1,0.1-0.1l0.3-0.1c0,0,0.1,0,0.1-0.1c0,0-0.5,0.1-0.2,0.1l0.3-0.1c0.1,0,0.5-0.1,0.1,0s0,0,0.1,0h0.5
		c-0.1,0-0.2,0-0.3,0c0.1,0,0.2,0.1,0.3,0.1l0.6,0.2c0.1,0,0.2,0.1,0.3,0.1l-0.3-0.1l0.2,0.1c0.2,0.1,0.4,0.2,0.6,0.2
		c0.3,0.2,0.7,0.3,1,0.5l0.2,0.1l-0.3-0.2l0.1,0.1l0.3,0.2l0.3,0.2c0.6,0.5,1.9,0.8,2.5,0.1c0.5-0.7,0.3-1.6-0.3-2.1
		C240.2,326.5,240.2,326.5,240.2,326.5L240.2,326.5z" fill="#FFFFFF"></path><path class="st1" d="M103.4,425.6c0,0,128.3-115.9,147.6-112.8s134.7,107.1,134.7,107.1" fill="#FFFFFF"></path><path class="st0" d="M105.1,427.3c3.9-3.5,7.8-7,11.7-10.4c9.6-8.5,19.3-16.9,29-25.3c12.3-10.5,24.7-20.9,37.2-31.1
		c11.9-9.7,24-19.2,36.5-28.2c5-3.6,10-7.1,15.3-10.3c1.1-0.7,2.2-1.3,3.3-2c0.5-0.3,1.1-0.6,1.6-0.9c0.1,0,0.3-0.2,0,0l0.4-0.2
		l0.8-0.5c1.7-0.9,3.5-1.7,5.2-2.5c0.7-0.3,1.5-0.5,2.2-0.8c0.2,0,1.1-0.3,0.8-0.2s0.5-0.1,0.7-0.1l0.8-0.1c0.6-0.1-0.5-0.1,0.2,0
		c0.2,0,0.5,0.1,0.7,0.1c0.5,0.1-0.6-0.2-0.1,0l0.5,0.2c0.7,0.2,1.3,0.5,2,0.8l1.1,0.5c0.7,0.3-0.2-0.1,0.1,0l0.7,0.4
		c2,1,3.8,2.2,5.7,3.3c5,3.1,9.7,6.5,14.4,10c5.7,4.2,11.8,8.9,17,13.1c13,10.3,25.7,20.9,38.3,31.6c11.3,9.7,22.6,19.5,33.8,29.3
		c6.1,5.4,12.2,10.8,18.2,16.2l0.8,0.8c0.9,0.8,2.3,1.3,3.3,0.5c0.8-0.8,0.7-2.1-0.1-2.8c0,0-0.1-0.1-0.1-0.1
		c-4.3-3.9-8.6-7.7-13-11.5c-10.4-9.2-20.9-18.3-31.4-27.4c-12.7-10.9-25.5-21.8-38.5-32.3c-11.3-9.2-22.8-18.4-34.8-26.6
		c-3.9-2.8-8-5.3-12.2-7.6c-2.8-1.4-5.8-2.9-9-2.5c-3.4,0.4-6.8,2-9.8,3.6c-4.8,2.6-9.5,5.4-13.9,8.5c-12.1,8.1-23.7,17.1-35.1,26.1
		c-12.9,10.3-25.6,20.8-38.2,31.5c-10.8,9.1-21.4,18.4-32,27.7c-5.7,5-11.3,10-16.9,15l-0.8,0.7c-2,1.8,1.7,5.1,3.5,3.5L105.1,427.3
		z" fill="#000005"></path><path class="st0" d="M261.8,339.2c0,0-5,1.7-3,6.3s7.8,2.2,7.3-2.3S261.8,339.2,261.8,339.2z" fill="#000005"></path><path class="st0" d="M228,341.8c0,0-5,1.6-3,6.3s7.8,2.2,7.3-2.3S228,341.8,228,341.8z" fill="#000005"></path><path class="st0" d="M222.9,389.2c3-9.2,13.4-11.7,21.9-12.8c9.4-1.1,19.2-0.3,27.2,5c3.9,2.5,7.1,6,9.1,10.2
		c0.8,1.6,5.5,0.3,4.9-1c-4.2-8.8-12.9-14.2-22.2-16.1c-5.8-1.1-11.8-1.3-17.6-0.5c-5.7,0.7-11.6,1.7-16.8,4.1
		c-5,2.3-9.5,6.2-11.3,11.5C217.5,391.1,222.4,390.7,222.9,389.2L222.9,389.2z" fill="#000005"></path></g><g id="fly"><path class="st2" d="M284,310.1c-4.3-8-8.7-16.5-9.7-25.7c-0.6-4.4,0-8.9,1.6-13c1.6-3.7,3.9-7,6.9-9.8c3.1-2.9,6.6-5.3,10.3-7.2
		c3.9-2.1,8.5-4,13-3.5c3.2,0.4,5.8,2.9,6.4,6.1c0.9,4-1.9,7.4-5.1,9.5c-5.2,3.1-11.6,3.3-17,0.6c-6.2-3.2-8.7-10.5-8.1-17.3
		c0.6-4.7,2-9.2,4.1-13.5c1.9-4.1,4-8.1,6.3-12c4.4-7.8,9.6-15.2,16.4-21.2c6.3-5.6,14.2-10,22.6-11.3c7.8-1.2,17.2-0.3,21.3,7.4
		c1.9,3.5,2.1,7.7,0.5,11.3c-1.7,3.3-4.5,6-8,7.4c-4.2,1.9-9,2.1-13.5,1.8c-4.3-0.4-8.6-1-12.9-1.9c-7-1.5-14-4.2-18.1-10.4
		c-2.2-3.7-3.6-7.8-4.2-12.1c-0.8-4.5-1.2-9.1-1.2-13.7c-0.2-4.6,0.6-9.2,2.4-13.5c1.6-3.6,3.7-7,6.3-10c5.3-6.3,11.9-11.3,17.8-17
		s11.6-12.2,14-20.2c2.1-7.3,0.8-15.1-3.6-21.4c-4.4-6.6-11.2-11.5-18.5-14.5c-8.7-3.6-18.3-4.3-27.6-3.9c-4.7,0.2-9.4,0.7-14.1,1.2
		c-1.1,0.1-0.2,1.1,0.3,1.5c0.9,0.8,2,1.2,3.2,1.3c17.3-1.9,39-3.9,51.1,11.4c5.3,6.4,7,15,4.5,22.9c-2.7,8.4-9,15.1-15.4,20.9
		s-13.2,11.2-18.3,18.2c-2.5,3.4-4.4,7.2-5.5,11.2c-1.3,5-1.2,10.2-0.8,15.3c0.7,8.9,2,18.4,8.5,25c6,6.1,14.6,9.1,22.9,10.7
		c4.7,1,9.4,1.6,14.1,1.9c4.6,0.2,9.5-0.3,13.7-2.5c3.5-1.7,6.3-4.6,7.8-8.2c1.3-3.9,0.8-8.2-1.3-11.7c-4.7-8.2-15.2-11.6-24.1-11.4
		s-17.7,3.9-24.8,9.3c-7.5,5.7-13.3,13.3-18.2,21.3c-2.5,4.1-4.7,8.3-6.8,12.6c-2.3,4.4-4,9.1-5,14c-0.8,4.4-0.4,8.9,1.4,13
		c1.5,3.1,3.8,5.7,6.6,7.7c5.8,4.2,13.3,6.5,20.4,4.8c3.6-0.8,6.8-2.8,9-5.7c2.4-3.3,2-7.4-0.4-10.6c-2.7-3.6-6.7-5.9-11.2-6.6
		c-4.9-0.7-9.7,0.8-14,3c-7.5,3.8-15,9.5-18.4,17.4c-3.8,9-1.6,18.8,1.9,27.5c1.8,4.3,3.9,8.6,6.2,12.7c0.7,0.9,1.7,1.6,2.9,1.8
		c0.6,0.1,1.9,0.3,1.3-0.6L284,310.1z"></path><path class="st0" d="M369.9,116.8h0.2c-0.9,0.2-0.2,0,0.1,0c0.7,0,1.4-0.1,2.2-0.1c2,0,4,0.4,5.9,1.1c4.4,1.7,7.8,5.7,10,9.8
		c0.8,1.4,1.3,3,1.4,4.6c0,0.4-0.1,0.7-0.4,0.9c0.4-0.3-0.1,0-0.1,0c0.5-0.2,0.2-0.1,0.1-0.1c0.7-0.1-0.1-0.2,0.7,0
		c-0.5-0.1,0.6,0.2,0.2,0c0.8,0.3,0.1,0-0.1-0.1c0.6,0.4-0.1-0.1-0.2-0.3l-0.4-0.4c0.1,0.1,0.3,0.4,0,0c-0.3-0.3-0.5-0.7-0.7-1.1
		c-0.9-1.5-1.6-3-2.1-4.6c-1.2-3.4-1.9-7.4-1.1-11c0.9-3.9,4.6-7.4,8.4-8.5c0.8-0.3,1.6-0.4,2.5-0.3c-0.3,0,1,0.3,0.5,0.1
		c0.4,0.1,0.7,0.3,1,0.5c0.4,0.5,0.8,1,1.1,1.6c0.6,1.3,0.8,2.6,0.8,4c0,2.3-0.5,4.7-1.6,6.7c-0.3,0.6-0.8,1.2-1.3,1.7
		c-0.3,0.3-0.1,0-0.1,0.1l-0.1,0.1c0.1-0.1,0.3-0.1,0.5-0.1c1,0,2,0.5,2.5,1.4c-0.1-0.2-0.1-0.3,0,0c0-0.1,0.1-0.6,0,0
		c0-0.1,0.1-0.2,0.1-0.4c-0.4,0.4,0,0,0.1,0c0.3-0.3-0.3,0.2,0,0c0,0,0-0.1,0.2,0c-0.5-0.2-0.1,0,0,0c-0.7-0.2,0.4,0.2,0.1,0.1
		c1.5,0.8,3.5,3.5,3.4,5.5c-0.2,4.2-6.4,4.4-9.1,3.2c-1-0.4-2.5-0.4-3,0.8s0.7,2.2,1.6,2.6c4.6,2,12.8,1.9,14.9-3.7
		c1.2-3-0.5-6.1-2.4-8.4s-4.7-4.5-7.8-3.8c-1.8,0.4-3.4,2.1-2.9,4.1c0.6,1.9,2.6,3,4.6,2.4c0.6-0.2,1.1-0.5,1.5-0.9
		c2-1.8,2.9-4.8,3.4-7.3c0.7-3.3,0.1-6.8-1.7-9.8c-3.6-5.4-10.8-5-15.6-1.5c-2.5,1.7-4.5,4-5.8,6.8c-0.8,2.4-1.1,4.9-0.8,7.4
		c0.4,4.7,1.9,9.8,4.8,13.7c1.2,1.7,2.9,3.2,5,3.4c2.1,0.2,3.9-1.2,4.2-3.3c0-0.1,0-0.1,0-0.2c0.3-2.4-1-5.1-2.1-7.1
		c-1.6-2.8-3.6-5.4-6-7.6c-4.7-4.2-10.9-6.3-17.2-5.8c-0.5,0-1.1,0.1-1.6,0.2c-0.8,0.1-1.4,0.9-1.2,1.8c0,0.2,0.1,0.4,0.2,0.6
		C367.3,116.6,368.6,117.1,369.9,116.8L369.9,116.8z"></path><path class="st0" d="M230.6,66.4c-5-0.9-10.1,0.2-14.2,3c-2.9,2.1-5.4,4.8-7.2,7.8c-1.7,2.5-3,5.4-3.6,8.4
		c-0.6,2.7,0.4,5.6,2.6,7.3c1.2,1.1,3,1,4.1-0.2c0,0,0,0,0,0c1.4-1.5,2.6-3.3,3.3-5.3c1.1-2.6,1.9-5.3,2.4-8
		c1.1-5.5,0.9-11.7-2.6-16.5c-3.2-4.4-10.2-11-16.2-7.4c-2.8,1.7-3.9,5.3-4.2,8.4c-0.3,3.7,0.4,7.4,1.9,10.8
		c0.6,1.4,1.4,2.7,2.4,3.8c0.7,0.8,1.8,1.9,2.9,1.8c2.4-0.2,0.9-4.1,0.2-5.1c-1.3-2-3.5-3.3-5.8-2.1c-1.3,0.8-2.5,1.9-3.3,3.2
		c-1.1,1.4-1.9,3.1-2.2,4.9c-1.1,6.4,5.5,11.6,11.4,11.2c1.5-0.1,2.9-0.5,4.3-1.2c1.3-0.6-1.2-4.9-2.8-4.2c-2.1,1-4.5,1.3-6.8,0.7
		c-0.8-0.2-1.5-0.5-2.2-1c-0.2-0.1-0.4-0.3-0.5-0.5c0.3,0.4-0.1-0.3,0,0c-0.1-0.2-0.1-0.2-0.1-0.5c-0.5-2.5,1.6-5.5,3.2-7.1
		c0.6-0.7,1.4-1.2,2.2-1.6c0.3-0.1,0.5-0.1,0.8-0.1c0.1,0,0.2,0.1,0.3,0.1s0.2,0.1,0,0c0.2,0.1,0.2,0.1-0.1-0.1
		c-0.5-0.4-0.7-1.2-0.8-1.3c0,0,0,0.2,0,0.1c-0.1,0.2-0.2,0.4-0.2,0.4s0.6,0.1,0.2,0c0.1,0,0.3,0.2,0.1,0c0.4,0.4,0.1,0.1,0.1,0
		l-0.1-0.2c-0.4-0.7,0.2,0.4-0.2-0.3c-0.1-0.2-0.3-0.5-0.4-0.8c-0.5-1.1-0.8-2.2-1-3.4c-0.8-4.3-0.1-11.7,5.4-12.5
		c2.1-0.2,4.3,0.4,6,1.8c1.1,0.8,2,1.7,2.9,2.7c0.4,0.4,0.7,0.8,1,1.3c0.4,0.6-0.2-0.4,0.2,0.2c0,0.1,0.4,0.8,0.3,0.5
		c1.6,3.8,0.9,8.5,0,12.4c-0.8,3.5-2.1,7.5-4.5,10.2c-0.3,0.4-0.7,0.7-1.2,1c-0.1,0.1-0.2,0.1-0.4,0.2c-0.1,0-0.2,0-0.2,0
		c0.1,0-0.1,0-0.1,0c0,0.1-0.1-0.1,0.2,0.1c0.3,0.3,0.6,0.7,0.8,1.2c-0.2-0.4,0,0.2,0-0.1s-0.1-0.3-0.1-0.5c0-0.9,0.2-1.8,0.4-2.6
		c1.8-5.9,5.5-11,10.6-14.4c2.5-1.5,5.4-2.4,8.4-2.6c1-0.1,1.9-0.1,2.9,0c0.3,0,0.6,0,0.9,0.1s-0.3-0.1,0,0
		C234.2,71,232,66.6,230.6,66.4L230.6,66.4z"></path></g></svg>